<svg id="Capa_1" data-name="Capa 1" xmlns="http://www.w3.org/2000/svg" xmlns:xlink="http://www.w3.org/1999/xlink" viewBox="0 0 299.18 684.4"><defs><style>.cls-1{fill:#f36e21;}.cls-10,.cls-14,.cls-2,.cls-3,.cls-9{fill:#fff;}.cls-11,.cls-3{stroke:#fff;}.cls-11,.cls-12,.cls-3,.cls-8,.cls-9{stroke-miterlimit:22.93;}.cls-3{stroke-width:0.02px;}.cls-10,.cls-11,.cls-12,.cls-13,.cls-3,.cls-4,.cls-5,.cls-6,.cls-7,.cls-8,.cls-9{fill-rule:evenodd;}.cls-4{fill:#82322e;}.cls-5{fill:#e0ba5b;}.cls-6{fill:url(#GradientFill_7);}.cls-7{fill:url(#GradientFill_7-2);}.cls-8{fill:#231f20;}.cls-12,.cls-8,.cls-9{stroke:#231f20;}.cls-8,.cls-9{stroke-width:0.22px;}.cls-11,.cls-12,.cls-18{fill:none;}.cls-11,.cls-12{stroke-linecap:round;}.cls-11{stroke-width:0.84px;}.cls-12{stroke-width:0.84px;}.cls-13{fill:url(#GradientFill_5);}.cls-14,.cls-15,.cls-16,.cls-17{font-size:26px;font-family:Arial-Black, Arial;font-weight:800;}.cls-15{fill:#f78d1e;}.cls-16{fill:#d37328;}.cls-17{fill:#f29120;}</style><linearGradient id="GradientFill_7" x1="-101.61" y1="585.72" x2="-104.4" y2="559.15" gradientTransform="translate(381.11 -291.64)" gradientUnits="userSpaceOnUse"><stop offset="0" stop-color="#ed8cac"/><stop offset="1" stop-color="#fff"/></linearGradient><linearGradient id="GradientFill_7-2" x1="-16.45" y1="585.72" x2="-19.24" y2="559.16" xlink:href="#GradientFill_7"/><radialGradient id="GradientFill_5" cx="177.9" cy="289.81" r="10.8" gradientTransform="translate(-35.8 -316.95) scale(1.96 2.16)" gradientUnits="userSpaceOnUse"><stop offset="0" stop-color="#fff"/><stop offset="1" stop-color="#ec008c"/></radialGradient></defs><title>logo-kinder-2</title><circle class="cls-1" cx="317.76" cy="311.81" r="149.59" transform="translate(-295.59 153.8) rotate(-45)"/><circle class="cls-2" cx="315.92" cy="313.31" r="107.05" transform="translate(-297.19 152.94) rotate(-45)"/><polygon class="cls-3" points="161.49 192.73 163.15 195.16 162.5 195.57 160.84 193.15 161.49 192.73"/><path class="cls-4" d="M298.62,243c1.69,4.73,6.67,7,10.95,5.1,15.54-7.05,42.73-6.19,56.28-6.19,6.6,0,15.68,4.94,20.63,7,11.55,4.94-4.13,4.94-8.25,3.53-.83,0-8.25.7-6.6,1.41,13,5.56,23.61,9.75,32.61,21.34a11.5,11.5,0,0,1,.73,1.09c2.68,4.38,15.18,24,12,21.3-2.47-2.11-11.55-4.93-15.67-4.93-1.66,0,17.33,14.81,17.33,25.39a31.93,31.93,0,0,1-1.94,10c-2.12,6.26-9.42,7.9-13.86,3.35a26.24,26.24,0,0,1-4-4.86c13.7,24-2.52,40.91-23.78,52.87-5.69,3.2-12.51-1.19-12.53-8.22V371c0,10.58-29.71,19-29.71,26.1,0,13.4-3.3,0-5.78-4.94-4.12-7.76,0,6.35-4.95,4.23-10.73-4.23-23.93-10.58-28.88-19.75-2.89-4.93-4.06-4.95-4.22-2.76a8.36,8.36,0,0,1-12.54,6.67,67.68,67.68,0,0,1-9.65-6.73c-6.6-5.64-6.6-18.34-6.6-1.41,0,4.23,4.95,7.76-3.3,4.23-14.86-6.35-27.24-28.92-27.24-42.32,0-4.94,5-14.81,10.73-16.93,1.65-.7-15.68,2.12-15.68,2.12-5.77,0-11.55,12.69-11.55.7,0-13.4,4.12-24,14.85-33.15a106,106,0,0,1,12.47-8.49,8,8,0,0,1,6.39-.47c5.78,1.9-2.64-4.44-13.08-4.44-4.13,0,11.45-22.67,15.41-26C253.62,244,291,221.6,298.62,243Z" transform="translate(-168.18 -162.22)"/><path class="cls-5" d="M276.11,262.76a15.83,15.83,0,1,1-15.48,15.83A15.66,15.66,0,0,1,276.11,262.76Z" transform="translate(-168.18 -162.22)"/><path class="cls-6" d="M278.13,272.46A8.58,8.58,0,1,1,269,281,8.86,8.86,0,0,1,278.13,272.46Z" transform="translate(-168.18 -162.22)"/><path class="cls-5" d="M365.31,262.76a15.83,15.83,0,1,0,15.48,15.83A15.67,15.67,0,0,0,365.31,262.76Z" transform="translate(-168.18 -162.22)"/><path class="cls-7" d="M363.29,272.46a8.58,8.58,0,1,0,9.12,8.56A8.86,8.86,0,0,0,363.29,272.46Z" transform="translate(-168.18 -162.22)"/><path class="cls-5" d="M338.39,270.68c19.79,3.08,37.37,27.63,38.89,48.5,1.86,25.52-14.21,32.67-33.06,36-24.69,4.34-84.44,11.75-78.7-33.19C271.36,276.17,302.57,265.09,338.39,270.68Z" transform="translate(-168.18 -162.22)"/><path class="cls-8" d="M332.31,307.93c-.44-4.48,2-8.55,5.46-9.08s6.62,2.67,7.06,7.16-2,8.55-5.47,9.08S332.74,312.42,332.31,307.93Z" transform="translate(-168.18 -162.22)"/><path class="cls-9" d="M334.86,304.65a2.12,2.12,0,0,1,1.54-2.41,1.86,1.86,0,0,1,2,1.87,2.13,2.13,0,0,1-1.54,2.41A1.86,1.86,0,0,1,334.86,304.65Z" transform="translate(-168.18 -162.22)"/><path class="cls-10" d="M330.4,310.46c10.82,1.69,20.43,15.11,21.26,26.53,1,14-7.76,17.87-18.08,19.68-13.5,2.37-46.18,6.43-43-18.15C293.74,313.47,310.8,307.4,330.4,310.46Z" transform="translate(-168.18 -162.22)"/><path class="cls-11" d="M321.28,323.41a18,18,0,0,0-1.43,7.17c0,6.9,3.55,12.5,7.94,12.5,3.08,0,5.88-2.82,7.19-7.22" transform="translate(-168.18 -162.22)"/><path class="cls-11" d="M320.94,337.14c-1.3,4.4-4.11,7.22-7.19,7.22s-5.89-2.82-7.19-7.22" transform="translate(-168.18 -162.22)"/><path class="cls-12" d="M300.46,325.22a203.9,203.9,0,0,0-29.18-1.79c-5.8,0-12,.8-17.76,1.39-2,.2-5.25,1.2-7.24,1.2" transform="translate(-168.18 -162.22)"/><path class="cls-12" d="M297.92,336.94c-8,1-15.58,3.38-23.56,6.16-5.25,1.79-11.23,4.77-16.49,6.16-2.53.6-8.88,3.38-10.69,5.37" transform="translate(-168.18 -162.22)"/><path class="cls-12" d="M336.09,325.22a203.9,203.9,0,0,1,29.18-1.79c5.8,0,12,.8,17.76,1.39,2,.2,5.25,1.2,7.25,1.2" transform="translate(-168.18 -162.22)"/><path class="cls-12" d="M345.25,335.85c8,1,15.58,3.38,23.56,6.16,5.25,1.79,11.23,4.77,16.49,6.16,2.54.59,8.88,3.37,10.69,5.36" transform="translate(-168.18 -162.22)"/><path class="cls-8" d="M298.23,307.4c-.44-4.49,2-8.56,5.46-9.09s6.62,2.67,7.06,7.16-2,8.55-5.47,9.09S298.66,311.88,298.23,307.4Z" transform="translate(-168.18 -162.22)"/><path class="cls-9" d="M300.86,303.82a2.12,2.12,0,0,1,1.54-2.41,1.86,1.86,0,0,1,2,1.87,2.13,2.13,0,0,1-1.54,2.4A1.85,1.85,0,0,1,300.86,303.82Z" transform="translate(-168.18 -162.22)"/><path class="cls-13" d="M321.29,303.76c7.5,0,13.57,4.55,13.57,10.16s-6.07,10.15-13.57,10.15-13.56-4.55-13.56-10.15S313.8,303.76,321.29,303.76Z" transform="translate(-168.18 -162.22)"/><text x="-168.18" y="-162.22"/><text class="cls-14" transform="translate(29.32 172.26) rotate(-95.6) scale(0.95 1)">V</text><text class="cls-14" transform="matrix(0.02, -0.95, 1, 0.02, 27.75, 153.65)">I</text><text class="cls-14" transform="matrix(0.12, -0.94, 0.99, 0.12, 27.71, 144.48)">L</text><text class="cls-14" transform="matrix(0.24, -0.92, 0.97, 0.26, 29.64, 128.73)">L</text><text class="cls-14" transform="translate(33.57 113.38) rotate(-66.71) scale(0.95 1)">A</text><text class="cls-14" transform="translate(41.2 96.36) rotate(-60.27) scale(0.95 1)"><tspan xml:space="preserve">    </tspan></text><text class="cls-15" transform="translate(41.1 96.36) rotate(-59.3) scale(0.95 1)">_</text><text class="cls-14" transform="translate(47.22 86.13) rotate(-54.17) scale(0.95 1)">I</text><text class="cls-14" transform="translate(52.26 78.53) rotate(-47.13) scale(0.95 1)">N</text><text class="cls-14" transform="translate(65.87 64.02) rotate(-38.52) scale(0.95 1)">F</text><text class="cls-14" transform="translate(76.35 55.34) rotate(-31.26) scale(0.95 1)">A</text><text class="cls-14" transform="matrix(0.88, -0.35, 0.37, 0.93, 92.1, 45.65)">N</text><text class="cls-14" transform="translate(110.57 38.27) rotate(-12.86) scale(0.95 1)">T</text><text class="cls-14" transform="translate(127.47 34.62) rotate(-6.43) scale(0.95 1)">I</text><text class="cls-14" transform="translate(136.52 33.47) rotate(-0.93) scale(0.95 1)">L</text><text class="cls-16" transform="translate(152.51 33.38) rotate(6.3) scale(0.95 1)">_</text><text class="cls-14" transform="matrix(0.93, 0.18, -0.19, 0.98, 164.37, 34.76)"> </text><text class="cls-14" transform="translate(164.21 34.22) rotate(14.66) scale(0.95 1)">M</text><text class="cls-14" transform="translate(185.99 40.04) rotate(24.69) scale(0.95 1)">A</text><text class="cls-14" transform="matrix(0.79, 0.53, -0.55, 0.83, 202.85, 47.73)">R</text><text class="cls-14" transform="translate(218.23 58.29) rotate(40.42) scale(0.95 1)">I</text><text class="cls-14" transform="matrix(0.65, 0.69, -0.73, 0.68, 225.36, 63.96)">A</text><text class="cls-17" transform="translate(237.87 77.85) rotate(53.52) scale(0.95 1)"> </text><text class="cls-17" transform="matrix(0.55, 0.77, -0.81, 0.58, 237.89, 77.73)">_</text><text class="cls-14" transform="translate(244.8 87.48) rotate(59.61) scale(0.95 1)">I</text><text class="cls-14" transform="translate(249.63 95.21) rotate(66.05) scale(0.95 1)">S</text><text class="cls-14" transform="translate(256.7 110.87) rotate(74.79) scale(0.95 1)">A</text><text class="cls-14" transform="matrix(0.1, 0.94, -0.99, 0.11, 261.6, 128.73)">B</text><text class="cls-14" transform="translate(263.59 147.18) rotate(92.38) scale(0.95 1)">E</text><text class="cls-14" transform="translate(262.88 164.37) rotate(100.39) scale(0.95 1)">L</text><line class="cls-18" x1="299.18" y1="156.14" y2="156.14"/></svg>