<?xml version="1.0" standalone="no"?>
<!DOCTYPE svg PUBLIC "-//W3C//DTD SVG 20010904//EN"
 "http://www.w3.org/TR/2001/REC-SVG-20010904/DTD/svg10.dtd">
<svg version="1.0" xmlns="http://www.w3.org/2000/svg"
 width="623.000000pt" height="615.000000pt" viewBox="0 0 623.000000 615.000000"
 preserveAspectRatio="xMidYMid meet">
<metadata>
Created by potrace 1.15, written by Peter Selinger 2001-2017
</metadata>
<g transform="translate(0.000000,615.000000) scale(0.100000,-0.100000)"
fill="#000000" stroke="none">
<path d="M3620 4735 c0 -206 -2 -375 -4 -375 -2 0 -132 76 -289 170 l-285 170
-409 -243 -408 -243 -3 243 -2 243 -405 0 -405 0 -2 -487 -3 -487 -633 -376
c-348 -207 -638 -382 -644 -388 -8 -8 18 -65 98 -212 60 -111 114 -204 120
-206 6 -3 105 52 221 121 184 109 216 125 255 125 l43 0 54 -577 c30 -318 58
-605 62 -638 17 -119 99 -982 100 -1045 0 -36 4 -95 9 -132 l8 -66 104 -106
c99 -101 106 -106 146 -106 38 0 42 2 42 25 0 28 20 75 32 75 4 0 20 -22 36
-50 27 -50 27 -50 79 -50 50 0 51 0 60 36 l8 35 42 -35 c38 -33 46 -36 108
-36 l66 0 -7 58 c-4 41 -2 67 9 92 l15 35 1 -30 c1 -35 18 -63 70 -117 32 -35
40 -38 88 -38 50 0 53 1 53 25 0 31 -1 31 60 0 44 -23 61 -25 170 -25 l120 0
1 63 0 62 14 -37 c30 -81 39 -88 121 -88 81 0 73 -6 100 70 4 10 10 6 20 -16
19 -39 51 -54 114 -54 71 0 97 26 107 109 l8 63 40 -71 c38 -68 41 -71 70 -65
51 10 122 44 145 69 12 12 27 41 34 64 l12 41 44 -75 c24 -41 48 -75 52 -75 5
0 8 11 8 24 0 23 2 24 60 19 85 -8 143 15 163 65 8 20 18 55 21 77 l8 39 30
-69 c40 -92 55 -107 117 -113 67 -6 99 3 113 33 6 14 15 25 19 25 5 0 23 -20
41 -44 39 -53 73 -71 110 -57 28 11 68 68 68 98 0 41 14 31 39 -26 37 -83 46
-91 100 -91 36 0 66 11 137 49 l91 48 31 -35 c28 -30 36 -34 64 -28 40 7 73
45 90 103 7 24 16 43 20 43 14 0 46 -57 61 -111 12 -41 23 -59 41 -67 40 -18
81 2 100 48 8 21 23 43 33 48 14 9 21 4 38 -26 26 -47 64 -62 99 -39 14 10 28
30 32 45 12 56 13 57 39 32 13 -12 31 -37 40 -55 8 -19 34 -73 57 -122 l41
-88 8 65 c5 36 45 650 90 1365 44 715 83 1305 85 1312 2 8 60 -22 151 -76 81
-49 151 -87 154 -85 15 8 220 397 216 408 -3 7 -433 266 -955 576 l-951 565
1120 3 1119 2 0 485 0 485 -520 0 c-519 0 -520 0 -520 -21 0 -47 -40 -79 -54
-43 -5 14 -9 13 -26 -7 -18 -22 -21 -23 -33 -7 -17 21 -70 26 -92 8 -15 -12
-19 -11 -35 10 l-18 23 -6 -21 c-14 -43 -56 -14 -56 37 0 21 0 21 -625 21
l-625 0 0 -375z m2438 -107 l-3 -313 -1130 0 -1130 0 -3 313 -2 312 1135 0
1135 0 -2 -312z m-1982 -1082 c555 -330 1045 -627 1089 -661 70 -53 80 -65 83
-95 3 -38 -146 -2371 -151 -2377 -2 -2 -15 6 -29 16 -42 34 -71 35 -105 7
l-31 -26 -16 24 c-8 14 -25 27 -36 31 -28 9 -70 -20 -70 -47 0 -21 -26 -58
-40 -58 -5 0 -40 40 -79 90 -110 139 -209 240 -237 240 -25 0 -64 -32 -64 -52
0 -7 15 -48 34 -93 19 -44 37 -100 40 -124 l7 -44 -33 25 c-18 13 -68 45 -110
70 l-76 47 15 -37 c8 -20 24 -54 34 -74 11 -21 19 -42 19 -47 0 -6 -27 -24
-60 -41 -55 -28 -60 -29 -68 -12 -19 37 -51 149 -57 202 -10 87 -14 99 -39
115 -32 21 -63 6 -99 -48 -15 -23 -38 -57 -52 -76 -18 -25 -25 -47 -25 -80 l0
-45 -64 67 c-74 78 -122 103 -160 85 -14 -6 -28 -19 -31 -30 -4 -10 -10 -18
-14 -18 -4 0 -24 39 -46 87 -45 102 -60 123 -90 123 -47 0 -56 -20 -81 -166
-13 -76 -26 -149 -29 -161 -11 -45 -22 -22 -28 55 -7 90 -34 170 -80 239 -38
56 -70 75 -104 62 -19 -7 -25 -5 -29 9 -18 59 -45 102 -69 108 -92 23 -133
-149 -79 -332 42 -141 47 -173 34 -189 -7 -8 -16 -15 -20 -15 -4 0 -37 57 -74
128 -66 123 -95 162 -121 162 -32 0 -55 -35 -60 -95 -4 -33 -8 -75 -11 -94 -5
-34 -6 -34 -17 -10 -40 79 -130 43 -191 -76 -21 -42 -26 -47 -31 -30 -25 72
-59 125 -112 170 -32 27 -64 57 -71 67 -26 35 -102 13 -102 -29 0 -8 6 -41 14
-72 8 -31 16 -82 19 -114 l6 -57 -50 0 c-28 0 -64 7 -81 16 l-31 16 7 65 7 65
-47 -34 c-26 -18 -62 -48 -81 -67 -18 -19 -33 -32 -34 -30 -16 69 -25 160 -21
215 4 63 2 74 -17 93 -28 28 -45 27 -80 -6 -27 -25 -128 -213 -145 -270 -4
-13 -12 -23 -18 -23 -22 0 -64 33 -78 63 -21 44 -71 50 -95 13 l-17 -26 -25
20 c-42 33 -80 26 -125 -21 l-40 -42 -46 46 -46 46 -117 1252 c-83 880 -121
1254 -130 1260 -9 5 -2 14 22 28 19 11 489 290 1044 621 556 330 1015 599
1021 598 6 -2 465 -273 1020 -602z"/>
<path d="M5177 4859 c-33 -19 -57 -88 -57 -166 0 -40 -4 -73 -9 -73 -5 0 -7
-9 -4 -20 3 -11 9 -18 13 -15 4 2 10 -19 14 -48 9 -81 8 -97 -10 -97 -11 0
-14 -5 -10 -16 3 -9 6 -17 6 -18 0 -2 20 1 45 7 34 8 45 15 45 30 0 14 -5 18
-19 14 -15 -4 -20 2 -25 32 -3 20 -6 53 -6 74 0 35 2 37 30 37 24 0 30 4 30
21 0 19 -4 20 -35 15 l-35 -7 0 66 c0 71 17 117 49 135 27 14 47 13 65 -6 20
-20 5 -51 -26 -56 -29 -4 -30 -32 -1 -36 52 -8 86 84 45 121 -21 19 -78 22
-105 6z"/>
<path d="M5620 4820 l0 -50 -35 0 c-28 0 -35 -4 -35 -20 0 -16 7 -20 34 -20
l34 0 7 -87 c8 -102 23 -133 63 -133 37 0 71 24 56 40 -8 8 -18 8 -38 -1 -14
-7 -29 -10 -32 -6 -11 11 -24 82 -24 135 l0 52 38 0 c44 0 79 29 68 56 -6 15
-8 16 -24 0 -10 -9 -33 -16 -50 -16 -32 0 -32 1 -32 50 0 38 -4 50 -15 50 -11
0 -15 -12 -15 -50z"/>
<path d="M4060 4820 c0 -11 7 -20 15 -20 8 0 15 -6 15 -14 0 -12 -25 -126 -56
-256 -5 -19 -14 4 -40 95 -39 140 -39 135 -18 135 11 0 14 5 10 16 -3 9 -6 17
-6 19 0 2 -21 -3 -47 -9 -51 -13 -65 -39 -26 -44 24 -4 25 -6 84 -224 18 -65
36 -118 39 -118 4 0 26 88 50 195 31 138 47 194 56 191 6 -2 14 4 17 14 4 15
-4 20 -39 29 -55 14 -54 14 -54 -9z"/>
<path d="M4230 4810 c0 -14 7 -20 24 -20 27 0 29 -11 41 -227 4 -88 3 -103
-10 -103 -8 0 -15 -9 -15 -20 0 -23 -1 -23 54 -9 35 9 43 14 39 29 -3 10 -11
16 -18 14 -18 -7 -23 24 -31 204 l-6 152 -39 0 c-32 0 -39 -3 -39 -20z"/>
<path d="M4340 4810 c0 -14 7 -20 24 -20 23 0 25 -4 30 -72 17 -228 17 -258 1
-258 -8 0 -15 -9 -15 -20 0 -23 -1 -23 54 -9 35 9 43 14 39 29 -3 11 -11 16
-19 13 -18 -7 -22 17 -30 200 l-6 157 -39 0 c-32 0 -39 -3 -39 -20z"/>
<path d="M5835 4820 c-10 -16 4 -30 31 -30 23 0 24 -3 24 -58 0 -33 3 -107 7
-165 5 -95 4 -107 -10 -107 -18 0 -21 -8 -9 -27 12 -19 94 5 90 26 -2 9 -11
15 -20 13 -14 -2 -17 13 -22 95 -4 54 -9 135 -12 181 l-6 82 -33 0 c-19 0 -37
-4 -40 -10z"/>
<path d="M4490 4665 c0 -25 5 -45 10 -45 6 0 10 6 10 14 0 8 9 17 20 21 29 9
60 -12 60 -40 0 -22 -2 -24 -26 -15 -37 14 -52 12 -74 -10 -26 -26 -26 -81 -2
-103 10 -10 32 -17 49 -17 17 0 33 -4 35 -9 2 -4 12 -11 23 -15 20 -6 21 -1
23 99 2 93 0 107 -18 125 -11 11 -33 20 -50 20 -16 0 -30 5 -30 10 0 6 -7 10
-15 10 -11 0 -15 -12 -15 -45z"/>
<path d="M5267 4703 c-4 -3 -7 -24 -7 -45 0 -27 4 -38 15 -38 8 0 15 6 15 14
0 22 31 28 56 11 29 -19 34 -61 7 -50 -63 26 -107 1 -107 -60 0 -46 25 -68 72
-63 20 3 32 0 32 -8 0 -11 21 -24 41 -24 12 0 12 37 0 42 -6 2 -5 25 1 58 17
96 -7 150 -69 150 -18 0 -33 5 -33 10 0 11 -13 13 -23 3z"/>
<path d="M4893 4693 c-20 -8 -15 -33 6 -33 16 0 19 -10 23 -72 3 -54 1 -75 -9
-81 -7 -4 -13 -15 -13 -24 0 -12 7 -14 31 -9 17 3 38 6 45 6 8 0 14 9 14 20 0
14 -6 20 -17 18 -33 -5 -30 93 3 126 19 20 29 20 48 0 22 -22 23 -154 1 -154
-8 0 -15 -9 -15 -20 0 -17 7 -20 45 -20 38 0 45 3 45 20 0 11 -7 20 -15 20
-12 0 -15 14 -15 64 0 67 -12 115 -33 128 -18 12 -62 9 -75 -4 -9 -9 -12 -8
-12 5 0 17 -29 22 -57 10z"/>
<path d="M5411 4691 c-15 -10 -7 -31 13 -31 26 0 36 -144 11 -154 -8 -3 -15
-13 -15 -22 0 -13 6 -15 31 -10 17 3 38 6 45 6 8 0 14 9 14 20 0 13 -5 18 -15
14 -9 -4 -16 3 -21 20 -15 63 27 143 64 120 24 -16 31 -164 7 -164 -8 0 -15
-9 -15 -20 0 -17 7 -20 45 -20 38 0 45 3 45 20 0 11 -6 20 -14 20 -11 0 -15
21 -17 86 -3 71 -7 88 -23 100 -24 17 -68 18 -84 2 -9 -9 -12 -8 -12 5 0 18
-35 23 -59 8z"/>
<path d="M3945 3118 c-29 -75 -72 -235 -66 -241 5 -5 18 -7 29 -5 23 4 224
226 219 242 -6 17 -176 20 -182 4z m69 -118 c-106 -120 -132 -136 -109 -70 8
23 24 72 35 110 l21 70 75 0 75 0 -97 -110z"/>
<path d="M1547 3103 c-4 -3 -7 -16 -7 -28 0 -19 7 -23 50 -29 37 -5 53 -12 62
-29 18 -33 12 -707 -7 -726 -7 -7 -34 -16 -60 -18 -43 -5 -46 -8 -43 -32 l3
-26 170 0 170 0 0 25 c0 22 -5 26 -47 31 -26 4 -52 10 -57 13 -19 12 -22 69
-19 325 l3 254 155 -327 c145 -308 155 -327 179 -324 22 3 42 39 175 320 l151
316 3 -271 c2 -267 2 -272 -19 -289 -12 -11 -38 -18 -60 -18 -37 0 -39 -2 -39
-30 l0 -30 205 0 205 0 0 30 c0 28 -2 30 -38 30 -21 0 -48 7 -60 16 l-22 15 0
352 c0 194 4 357 8 364 10 15 57 33 87 33 29 0 38 13 30 40 -6 20 -14 20 -146
18 l-139 -3 -152 -318 c-83 -175 -155 -314 -159 -310 -4 4 -71 143 -149 308
-79 165 -147 306 -153 313 -10 13 -267 18 -280 5z m366 -225 c56 -117 129
-269 162 -336 l60 -124 160 336 159 336 128 0 c128 0 168 -12 83 -24 -31 -5
-51 -15 -65 -33 -19 -25 -20 -39 -20 -378 0 -400 -2 -391 78 -402 95 -13 31
-23 -143 -23 -117 0 -185 4 -185 10 0 6 11 10 25 10 33 0 81 25 89 45 3 9 6
159 6 333 l0 317 -170 -355 c-93 -195 -175 -356 -182 -358 -8 -1 -74 127 -178
349 -91 193 -168 353 -172 355 -13 8 -10 -599 3 -634 11 -32 48 -52 95 -52 13
0 24 -4 24 -10 0 -6 -58 -10 -155 -10 -149 0 -199 10 -115 24 22 3 49 15 60
26 19 19 20 36 22 318 3 387 2 412 -24 439 -11 12 -38 25 -59 28 -77 13 -36
25 87 25 l125 0 102 -212z"/>
<path d="M2975 2844 c-80 -20 -117 -39 -149 -75 -30 -33 -36 -47 -36 -84 0
-54 25 -85 69 -85 46 0 71 28 78 88 4 38 12 57 27 67 31 22 74 18 100 -8 23
-23 43 -97 32 -115 -3 -5 -34 -19 -68 -32 -210 -76 -290 -162 -259 -278 35
-132 163 -161 303 -68 28 18 28 18 37 -7 12 -31 39 -47 81 -47 41 0 66 13 118
63 29 28 42 50 42 68 0 37 -23 43 -51 13 -44 -47 -46 -38 -51 179 -4 234 -10
256 -88 294 -44 22 -146 36 -185 27z m174 -42 c71 -35 75 -48 81 -285 4 -191
7 -212 22 -215 10 -2 31 6 48 18 16 12 30 16 30 10 0 -44 -85 -110 -141 -110
-40 0 -69 26 -69 62 0 25 -8 23 -70 -19 -43 -29 -67 -38 -111 -41 -74 -5 -114
15 -140 71 -33 74 -19 140 42 192 37 31 142 81 228 110 l53 17 -5 49 c-8 69
-30 105 -72 119 -71 23 -125 -9 -125 -74 0 -57 -23 -88 -63 -84 -23 2 -35 11
-45 31 -12 24 -11 33 7 71 23 46 70 79 137 95 51 13 150 4 193 -17z"/>
<path d="M3030 2539 c-118 -54 -160 -119 -125 -192 30 -63 83 -72 163 -27 l52
30 0 110 c0 82 -3 110 -12 110 -7 -1 -42 -14 -78 -31z m70 -89 l0 -89 -43 -26
c-52 -30 -90 -32 -117 -5 -57 57 -29 128 70 177 36 18 71 33 78 33 9 0 12 -25
12 -90z"/>
<path d="M3425 2809 c-55 -23 -102 -43 -104 -45 -2 -2 0 -14 6 -26 8 -18 18
-23 49 -23 l39 0 3 -209 c2 -145 -1 -213 -9 -222 -6 -8 -27 -14 -45 -14 -31 0
-34 -3 -34 -30 l0 -30 170 0 170 0 0 30 c0 27 -3 30 -30 30 -17 0 -39 9 -50
20 -18 18 -20 33 -20 188 l0 169 33 38 33 37 34 -21 c48 -29 93 -28 118 4 11
13 23 21 27 17 3 -4 23 -7 43 -7 l37 0 3 -203 c1 -124 -2 -210 -8 -222 -6 -11
-23 -20 -43 -22 -27 -2 -33 -8 -35 -30 l-3 -28 166 0 166 0 -3 28 c-2 22 -9
28 -33 30 -56 7 -55 2 -55 298 l0 274 -33 0 c-18 0 -71 -15 -118 -34 l-84 -34
-25 29 c-48 56 -128 53 -191 -7 l-29 -28 0 36 c0 23 -5 38 -16 42 -22 8 -18 9
-129 -35z m125 -40 l0 -61 53 56 c51 54 67 62 122 56 28 -3 65 -39 65 -63 0
-29 -29 -57 -58 -57 -13 0 -40 9 -59 21 -41 26 -54 21 -93 -32 l-30 -42 0
-166 c0 -191 6 -211 63 -225 71 -18 36 -26 -113 -26 -93 0 -150 4 -150 10 0 6
11 10 25 10 14 0 34 9 45 20 19 19 20 33 20 226 0 127 -4 213 -11 225 -8 16
-19 20 -46 17 -65 -5 -45 17 49 54 51 20 99 37 106 37 8 1 12 -17 12 -60z
m480 -214 c0 -252 1 -266 20 -285 11 -11 31 -20 45 -20 14 0 25 -4 25 -10 0
-6 -55 -10 -145 -10 -90 0 -145 4 -145 10 0 6 10 10 23 10 13 0 32 6 43 14 18
13 19 30 22 225 4 241 1 254 -55 249 -20 -1 -38 2 -40 7 -4 12 150 73 185 74
l22 1 0 -265z"/>
<path d="M4338 2826 c-84 -31 -128 -82 -128 -148 0 -48 28 -78 73 -78 46 0 69
28 75 90 2 27 11 55 18 61 16 13 85 16 104 4 17 -11 40 -69 40 -103 0 -25 -6
-30 -52 -46 -105 -37 -197 -88 -237 -131 -65 -71 -65 -162 2 -233 60 -63 153
-64 243 -1 l43 29 13 -27 c32 -68 116 -63 193 11 35 33 45 50 45 74 0 40 -26
43 -60 7 -13 -14 -27 -25 -31 -25 -4 0 -9 93 -10 208 -4 194 -5 209 -27 243
-12 20 -39 45 -60 55 -48 24 -191 30 -244 10z m229 -25 c74 -34 78 -47 81
-281 5 -241 10 -256 71 -204 29 24 31 25 31 6 0 -26 -82 -99 -121 -107 -39 -9
-78 16 -86 55 -3 17 -7 30 -9 30 -2 0 -31 -18 -64 -39 -79 -51 -124 -59 -185
-32 -36 16 -50 29 -65 63 -24 53 -25 76 -4 127 24 60 90 103 252 166 64 25 72
31 72 54 0 35 -17 93 -33 115 -27 37 -127 37 -154 -1 -7 -9 -13 -33 -13 -53 0
-47 -24 -80 -59 -80 -37 0 -51 17 -51 62 0 48 47 102 105 123 59 21 181 19
232 -4z"/>
<path d="M4465 2544 c-114 -49 -163 -104 -150 -171 16 -84 93 -107 178 -53
l47 30 0 110 c0 60 -3 110 -7 110 -5 -1 -35 -12 -68 -26z m53 -96 l-3 -92 -40
-23 c-75 -42 -130 -24 -141 49 -5 28 -1 40 22 67 24 29 132 91 157 91 4 0 6
-41 5 -92z"/>
<path d="M3160 1781 c-84 -33 -95 -40 -95 -62 0 -21 5 -24 41 -27 38 -3 42 -6
48 -34 3 -17 6 -185 6 -373 l0 -342 71 -33 c129 -59 259 -51 361 24 206 153
172 505 -55 571 -67 19 -126 8 -187 -36 l-40 -29 0 178 c0 182 -4 203 -39 201
-9 0 -59 -17 -111 -38z m130 -189 l5 -203 40 41 c57 58 125 77 198 56 64 -19
120 -69 151 -135 31 -68 30 -206 -3 -278 -28 -64 -94 -126 -168 -160 -75 -34
-178 -30 -270 12 l-63 28 -1 346 c-1 190 -4 360 -8 376 -5 27 -10 30 -49 33
-23 2 -42 7 -42 12 0 11 170 79 190 77 13 -2 16 -35 20 -205z"/>
<path d="M3379 1401 c-15 -5 -41 -19 -58 -32 l-31 -23 0 -177 0 -178 28 -19
c80 -56 157 -50 215 18 43 50 57 98 57 192 0 60 -5 84 -26 126 -38 77 -115
115 -185 93z m120 -40 c48 -35 71 -95 71 -188 0 -69 -4 -89 -28 -133 -46 -89
-117 -110 -200 -60 l-32 20 2 172 3 173 45 23 c52 27 94 24 139 -7z"/>
<path d="M4483 1777 c-45 -18 -87 -37 -93 -43 -18 -18 13 -48 51 -48 l34 -1 0
-365 0 -365 -34 -5 c-42 -6 -61 -31 -41 -54 11 -14 35 -16 169 -14 l156 3 3
27 c3 25 0 28 -38 34 -24 4 -45 14 -50 25 -6 10 -10 184 -10 428 l0 411 -32
-1 c-18 0 -70 -15 -115 -32z m127 -389 c0 -451 0 -451 63 -456 24 -2 37 -8 37
-18 0 -11 -26 -14 -150 -14 -127 0 -150 2 -150 15 0 10 10 15 29 15 62 0 61
-5 61 394 0 399 1 393 -60 384 -16 -2 -31 0 -33 6 -4 12 145 74 181 75 l22 1
0 -402z"/>
<path d="M1517 1774 c-4 -4 -7 -17 -7 -30 0 -24 17 -34 56 -34 14 0 34 -5 45
-10 18 -10 19 -25 19 -365 l0 -354 -22 -15 c-12 -9 -39 -16 -60 -16 -28 0 -38
-5 -43 -21 -4 -12 -3 -25 2 -30 5 -5 99 -8 214 -7 l204 3 0 25 c0 22 -5 26
-46 30 -83 10 -79 -10 -79 369 0 369 2 384 55 389 67 6 76 11 73 40 l-3 27
-201 3 c-110 1 -203 -1 -207 -4z m393 -29 c0 -11 -11 -15 -39 -15 -23 0 -48
-8 -62 -19 l-24 -19 -3 -334 c-2 -183 0 -348 3 -365 7 -38 45 -63 95 -63 16 0
30 -4 30 -10 0 -6 -72 -10 -195 -10 -107 0 -195 4 -195 9 0 4 21 11 47 14 86
9 83 -3 83 408 l0 358 -22 15 c-12 9 -39 16 -60 16 -27 0 -38 4 -38 15 0 13
28 15 190 15 162 0 190 -2 190 -15z"/>
<path d="M2130 1508 c-106 -30 -166 -146 -126 -241 18 -45 63 -80 165 -132 47
-23 96 -51 108 -61 33 -28 38 -65 13 -97 -18 -22 -29 -27 -66 -27 -78 0 -136
48 -164 133 -10 33 -16 38 -38 35 l-27 -3 0 -115 0 -115 75 -3 c206 -10 222
-9 272 21 65 38 91 78 96 148 7 97 -35 141 -221 234 -43 21 -85 48 -93 59 -34
50 -1 96 69 96 64 0 95 -24 128 -96 25 -55 33 -65 52 -62 21 3 22 7 22 118 0
109 -1 115 -21 118 -11 2 -26 -3 -33 -11 -10 -12 -20 -13 -74 -1 -72 15 -89
16 -137 2z m140 -23 c56 -12 67 -12 81 1 8 8 19 14 22 14 4 0 7 -45 7 -101 0
-107 -12 -126 -36 -57 -19 55 -42 85 -79 102 -59 29 -137 15 -167 -28 -16 -23
-7 -64 18 -89 14 -14 67 -47 117 -73 51 -25 107 -57 125 -71 84 -63 86 -176 2
-247 -44 -36 -102 -50 -180 -41 -36 5 -89 8 -117 8 l-53 0 0 99 c0 78 3 98 14
98 8 0 17 -13 21 -29 9 -44 58 -105 98 -124 87 -42 181 -7 181 67 0 50 -37 86
-153 145 -114 59 -151 93 -158 149 -11 78 35 149 113 177 49 18 64 18 144 0z"/>
<path d="M2693 1510 c-58 -12 -95 -33 -132 -75 -42 -48 -44 -113 -5 -144 30
-24 43 -26 78 -10 27 13 44 46 48 99 4 45 38 66 92 56 31 -6 40 -14 52 -43 8
-19 14 -49 12 -66 -3 -27 -9 -32 -53 -47 -94 -32 -182 -77 -223 -115 -73 -66
-80 -164 -16 -235 63 -70 157 -73 251 -9 l42 29 15 -29 c33 -63 117 -58 192
11 35 33 44 47 44 74 0 41 -12 43 -52 9 -16 -14 -34 -23 -39 -19 -5 3 -9 90
-9 194 0 109 -4 201 -11 217 -14 38 -48 73 -85 89 -42 18 -149 25 -201 14z
m207 -40 c63 -32 70 -60 70 -277 0 -148 3 -193 14 -209 14 -19 15 -19 45 4 35
25 41 27 41 9 0 -20 -71 -85 -107 -97 -42 -15 -84 4 -97 45 -6 17 -11 31 -12
33 -1 2 -26 -12 -54 -32 -68 -47 -118 -60 -172 -46 -56 16 -95 59 -104 116
-15 102 64 174 269 245 l67 24 0 40 c0 50 -27 106 -60 123 -32 16 -96 9 -121
-14 -13 -12 -19 -30 -19 -61 0 -66 -41 -99 -91 -73 -26 15 -26 82 1 120 21 30
75 59 130 71 53 12 158 1 200 -21z"/>
<path d="M2786 1219 c-128 -54 -171 -108 -146 -184 24 -71 94 -86 173 -35 l47
30 0 110 c0 60 -1 110 -2 109 -2 0 -34 -14 -72 -30z m54 -92 l0 -93 -39 -22
c-80 -45 -146 -19 -146 58 0 50 23 75 110 116 38 19 71 34 72 34 2 0 3 -42 3
-93z"/>
<path d="M4030 1509 c-157 -32 -250 -168 -238 -351 11 -173 122 -288 277 -288
111 1 198 58 247 164 32 68 31 94 -1 102 -14 4 -27 5 -28 3 -1 -2 -12 -22 -23
-44 -30 -57 -76 -85 -136 -85 -51 0 -111 24 -139 56 -25 28 -55 94 -63 136
l-7 38 208 2 208 3 3 37 c4 51 -33 132 -79 172 -58 49 -149 71 -229 55z m160
-36 c71 -29 129 -110 130 -180 l0 -33 -211 0 -211 0 7 -47 c20 -137 105 -223
220 -223 63 0 123 35 153 89 40 71 58 43 23 -35 -45 -99 -128 -154 -231 -154
-114 0 -214 76 -246 188 -33 112 -4 264 64 335 73 77 200 102 302 60z"/>
<path d="M3980 1427 c-34 -22 -62 -62 -75 -104 l-6 -23 140 0 141 0 0 28 c0
94 -120 154 -200 99z m146 -31 c19 -19 34 -43 34 -55 0 -20 -5 -21 -115 -21
-123 0 -127 2 -99 49 23 38 62 60 108 61 30 0 45 -7 72 -34z"/>
<path d="M851 1294 c-25 -32 -26 -55 -5 -100 14 -29 20 -33 38 -27 11 4 36 8
55 8 41 0 54 27 40 79 -18 66 -90 89 -128 40z"/>
<path d="M522 1067 c-27 -28 -30 -92 -6 -125 33 -47 94 -48 94 -2 0 9 9 28 19
42 18 22 18 27 5 55 -14 29 -50 53 -78 53 -7 0 -22 -10 -34 -23z"/>
</g>
</svg>
